<?xml version="1.0" encoding="UTF-8"?><!DOCTYPE svg PUBLIC "-//W3C//DTD SVG 1.1//EN" "http://www.w3.org/Graphics/SVG/1.1/DTD/svg11.dtd"><svg viewBox="0 0 100 100" xmlns="http://www.w3.org/2000/svg" xmlns:xlink="http://www.w3.org/1999/xlink"><style>:root>svg{display:none}:root>svg:target{display:block}</style><svg viewBox="0 0 10000 10000" shape-rendering="geometricPrecision" text-rendering="geometricPrecision" image-rendering="optimizeQuality" fill-rule="evenodd" clip-rule="evenodd" id="21" xmlns="http://www.w3.org/2000/svg"><defs><style>.aastr0{stroke:#01a3e0;stroke-width:20;stroke-miterlimit:22.9256}.aafil0{fill:#01a3e0}.aafil1{fill:#feffff}</style></defs><g id="aaСлой_x0020_1"><rect class="aafil0 aastr0" x="1253.3" y="1448.96" width="7355.31" height="7220.59" rx="1527.44" ry="1527.44"/><g id="aa_1272820211216"><path class="aafil1" d="M2390.34 5548.53c54.52 487.3 335.46 775.88 836 819.52 506.91 44.22 1147.6 11.4 1668.49 11.4 819.63 0 1235.44 130.62 1241.9-430.03 5.86-507.42 31.82-1162.17-9.96-1651.05-42.25-495.01-342.09-794.22-831.86-838.33-310.75-27.99-2050.54-24.66-2514.81-11.18-306.14 8.85-398.72 128.59-403.55 431.29-7.63 477.06-36.78 1216.21 13.79 1668.38zM7317.85 3500.71c-107.95 47.61-458.09 352.89-571.64 446.13-200.58 164.71-392.34 277.1-401.3 637.89-26.96 1087.23-47.74 937.31 881.27 1689.44 48.36 39.12 87.48 78.23 180.14 71.63 302.7-21.64 194.17-575.13 194.56-1102.6l-2.61-1551.4c-13.87-147.31-125.2-259.53-280.42-191.09z"/></g></g></svg><svg fill="none" viewBox="0 0 13 8" id="arrow-icon" xmlns="http://www.w3.org/2000/svg"><path d="M1.5 7l5-5 5 5" stroke="#001A20" stroke-width="1.5" stroke-linecap="round"/></svg><svg fill="none" viewBox="0 0 12 8" id="arrow-icon-white" xmlns="http://www.w3.org/2000/svg"><path d="M1 7l5-5 5 5" stroke="#FCFDFE" stroke-width="2" stroke-linecap="round"/></svg><svg fill="none" viewBox="0 0 24 22" id="auth-icon" xmlns="http://www.w3.org/2000/svg"><path d="M12 9.619c-1.231 0-2.264-.414-3.099-1.24-.835-.827-1.252-1.85-1.252-3.07 0-1.22.417-2.242 1.252-3.069S10.77 1 12 1s2.264.413 3.099 1.24c.835.827 1.252 1.85 1.252 3.07 0 1.219-.417 2.242-1.252 3.069-.835.826-1.868 1.24-3.099 1.24zM1 21v-1.991c0-.597.192-1.16.575-1.688a3.89 3.89 0 011.518-1.239 26.227 26.227 0 014.516-1.545A18.903 18.903 0 0112 14.009c1.45 0 2.914.176 4.391.528 1.478.352 2.983.88 4.516 1.585.629.271 1.135.67 1.518 1.199S23 18.412 23 19.009V21H1zm.985-.976h20.03V19.01c0-.38-.137-.753-.41-1.118-.275-.366-.671-.685-1.19-.955a20.472 20.472 0 00-4.147-1.464 19.013 19.013 0 00-8.557 0c-1.41.325-2.784.813-4.125 1.464-.52.27-.916.589-1.19.955-.274.365-.41.738-.41 1.118v1.015zM12 8.643a3.26 3.26 0 002.38-.976c.658-.65.986-1.436.986-2.358 0-.921-.328-1.707-.985-2.358A3.26 3.26 0 0012 1.976a3.26 3.26 0 00-2.38.975 3.197 3.197 0 00-.986 2.358c0 .922.328 1.708.985 2.358A3.26 3.26 0 0012 8.643z" fill="#001A20" stroke="#001A20"/></svg><svg fill="none" viewBox="0 0 24 22" id="auth-icon-hover" xmlns="http://www.w3.org/2000/svg"><path d="M12 9.619c-1.231 0-2.264-.414-3.099-1.24-.835-.827-1.252-1.85-1.252-3.07 0-1.22.417-2.242 1.252-3.069S10.77 1 12 1s2.264.413 3.099 1.24c.835.827 1.252 1.85 1.252 3.07 0 1.219-.417 2.242-1.252 3.069-.835.826-1.868 1.24-3.099 1.24zM1 21v-1.991c0-.597.192-1.16.575-1.688a3.89 3.89 0 011.518-1.239 26.227 26.227 0 014.516-1.545A18.903 18.903 0 0112 14.009c1.45 0 2.914.176 4.391.528 1.478.352 2.983.88 4.516 1.585.629.271 1.135.67 1.518 1.199S23 18.412 23 19.009V21H1zm.985-.976h20.03V19.01c0-.38-.137-.753-.41-1.118-.275-.366-.671-.685-1.19-.955a20.472 20.472 0 00-4.147-1.464 19.013 19.013 0 00-8.557 0c-1.41.325-2.784.813-4.125 1.464-.52.27-.916.589-1.19.955-.274.365-.41.738-.41 1.118v1.015zM12 8.643a3.26 3.26 0 002.38-.976c.658-.65.986-1.436.986-2.358 0-.921-.328-1.707-.985-2.358A3.26 3.26 0 0012 1.976a3.26 3.26 0 00-2.38.975 3.197 3.197 0 00-.986 2.358c0 .922.328 1.708.985 2.358A3.26 3.26 0 0012 8.643z" fill="#0299D6" stroke="#0299D6"/></svg><svg fill="none" viewBox="0 0 24 22" id="auth-icon-white" xmlns="http://www.w3.org/2000/svg"><path d="M12 9.619c-1.231 0-2.264-.414-3.099-1.24-.835-.827-1.252-1.85-1.252-3.07 0-1.22.417-2.242 1.252-3.069S10.77 1 12 1s2.264.413 3.099 1.24c.835.827 1.252 1.85 1.252 3.07 0 1.219-.417 2.242-1.252 3.069-.835.826-1.868 1.24-3.099 1.24zM1 21v-1.991c0-.597.192-1.16.575-1.688a3.89 3.89 0 011.518-1.239 26.227 26.227 0 014.516-1.545A18.903 18.903 0 0112 14.009c1.45 0 2.914.176 4.391.528 1.478.352 2.983.88 4.516 1.585.629.271 1.135.67 1.518 1.199S23 18.412 23 19.009V21H1zm.985-.976h20.03V19.01c0-.38-.137-.753-.41-1.118-.275-.366-.671-.685-1.19-.955a20.472 20.472 0 00-4.147-1.464 19.013 19.013 0 00-8.557 0c-1.41.325-2.784.813-4.125 1.464-.52.27-.916.589-1.19.955-.274.365-.41.738-.41 1.118v1.015zM12 8.643a3.26 3.26 0 002.38-.976c.658-.65.986-1.436.986-2.358 0-.921-.328-1.707-.985-2.358A3.26 3.26 0 0012 1.976a3.26 3.26 0 00-2.38.975 3.197 3.197 0 00-.986 2.358c0 .922.328 1.708.985 2.358A3.26 3.26 0 0012 8.643z" fill="#FCFDFE" stroke="#FCFDFE"/></svg><svg fill="none" viewBox="0 0 18 18" id="checkmark" xmlns="http://www.w3.org/2000/svg"><path d="M15 1H3a2 2 0 00-2 2v12a2 2 0 002 2h12a2 2 0 002-2V3a2 2 0 00-2-2z" stroke="#000" stroke-width="1.5" stroke-linecap="round" stroke-linejoin="round"/></svg><svg fill="none" viewBox="0 0 18 18" id="checkmark-fill" xmlns="http://www.w3.org/2000/svg"><path d="M6 8l3 3 8-8m0 6v6a2 2 0 01-2 2H3a2 2 0 01-2-2V3a2 2 0 012-2h9" stroke="#000" stroke-width="1.5" stroke-linecap="round" stroke-linejoin="round"/></svg><svg fill="none" viewBox="0 0 14 14" id="close-icon" xmlns="http://www.w3.org/2000/svg"><path d="M13 1L1 13M1 1l12 12" stroke="#001A20" stroke-width="2" stroke-linecap="round" stroke-linejoin="round"/></svg><svg fill="none" viewBox="0 0 20 20" id="correct-icon" xmlns="http://www.w3.org/2000/svg"><path d="M7 10l2 2 4-4m6 2a9 9 0 11-18 0 9 9 0 0118 0z" stroke="#029902" stroke-width="2" stroke-linecap="round" stroke-linejoin="round"/></svg><svg fill="none" viewBox="0 0 20 22" id="download-icon" xmlns="http://www.w3.org/2000/svg"><path d="M13 6l-6.5 6.5a2.121 2.121 0 103 3L16 9a4.243 4.243 0 00-6-6L3.5 9.5a6.364 6.364 0 109 9L19 12" stroke="#001A20" stroke-width="2" stroke-linecap="round" stroke-linejoin="round"/></svg><svg fill="none" viewBox="0 0 20 20" id="error-icon" xmlns="http://www.w3.org/2000/svg"><path d="M10 6v4m0 4h.01M19 10a9 9 0 11-18 0 9 9 0 0118 0z" stroke="#D6024B" stroke-width="2" stroke-linecap="round" stroke-linejoin="round"/></svg><svg fill="none" viewBox="0 0 18 20" id="header-favorites-menu-clear-icon" xmlns="http://www.w3.org/2000/svg"><path d="M1 5h16M7 9v6m4-6v6M2 5l1 12a2 2 0 002 2h8a2 2 0 002-2l1-12M6 5V2a1 1 0 011-1h4a1 1 0 011 1v3" stroke="#001A20" stroke-width="2" stroke-linecap="round" stroke-linejoin="round"/></svg><svg fill="none" viewBox="0 0 20 20" id="icon-address" xmlns="http://www.w3.org/2000/svg"><path d="M1 19h18M7 6h1m-1 4h1m-1 4h1m4-8h1m-1 4h1m-1 4h1M3 19V3a2 2 0 012-2h10a2 2 0 012 2v16" stroke="#001A20" stroke-width="2" stroke-linecap="round" stroke-linejoin="round"/></svg><svg fill="none" viewBox="0 0 16 10" id="icon-arrow-right-blue" xmlns="http://www.w3.org/2000/svg"><path d="M1 5h14m0 0l-4 4m4-4l-4-4" stroke="#0A719B" stroke-width="2" stroke-linecap="round" stroke-linejoin="round"/></svg><svg fill="none" viewBox="0 0 10 16" id="icon-arrowsupdown" xmlns="http://www.w3.org/2000/svg"><path d="M1 5l4-4 4 4m0 6l-4 4-4-4" stroke="#001A20" stroke-width="2" stroke-linecap="round" stroke-linejoin="round"/></svg><svg fill="none" viewBox="0 0 26 14" id="icon-back" xmlns="http://www.w3.org/2000/svg"><path d="M1 7h24M1 7l6 6M1 7l6-6" stroke="#001A20" stroke-width="2" stroke-linecap="round" stroke-linejoin="round"/></svg><svg fill="none" viewBox="0 0 26 14" id="icon-back-white" xmlns="http://www.w3.org/2000/svg"><path d="M1 7h24M1 7l6 6M1 7l6-6" stroke="#FCFDFE" stroke-width="2" stroke-linecap="round" stroke-linejoin="round"/></svg><svg fill="none" viewBox="0 0 14 14" id="icon-close" xmlns="http://www.w3.org/2000/svg"><path d="M13 1L1 13M1 1l12 12" stroke="#001A20" stroke-width="2" stroke-linecap="round" stroke-linejoin="round"/></svg><svg fill="none" viewBox="0 0 12 8" id="icon-expand" xmlns="http://www.w3.org/2000/svg"><path d="M1 1l5 5 5-5" stroke="#001A20" stroke-width="2" stroke-linecap="round"/></svg><svg fill="none" viewBox="0 0 12 8" id="icon-expand-blue" xmlns="http://www.w3.org/2000/svg"><path d="M1 1l5 5 5-5" stroke="#0A719B" stroke-width="2" stroke-linecap="round"/></svg><svg fill="none" viewBox="0 0 12 8" id="icon-expand-grey" xmlns="http://www.w3.org/2000/svg"><path d="M1 1l5 5 5-5" stroke="#778083" stroke-width="2" stroke-linecap="round"/></svg><svg fill="none" viewBox="0 0 24 24" id="icon-filter" xmlns="http://www.w3.org/2000/svg"><g clip-path="url(#awclip0_901_9844)" stroke="#001A20" stroke-linecap="round" stroke-linejoin="round"><path d="M8 8H4v4h4V8zM6 4v4M6 12v8M14 14h-4v4h4v-4z" stroke-width="1.5"/><path d="M12 4v10M12 18v2" stroke-width="2"/><path d="M20 5h-4v4h4V5zM18 4v1M18 9v11" stroke-width="1.5"/></g><defs><clipPath id="awclip0_901_9844"><path fill="#fff" d="M0 0h24v24H0z"/></clipPath></defs></svg><svg fill="none" viewBox="0 0 20 16" id="icon-mail" xmlns="http://www.w3.org/2000/svg"><path d="M19 3a2 2 0 00-2-2H3a2 2 0 00-2 2m18 0v10a2 2 0 01-2 2H3a2 2 0 01-2-2V3m18 0l-9 6-9-6" stroke="#001A20" stroke-width="2" stroke-linecap="round" stroke-linejoin="round"/></svg><svg fill="none" viewBox="0 0 16 2" id="icon-minus" xmlns="http://www.w3.org/2000/svg"><path stroke="#001A20" stroke-width="2" stroke-linecap="round" d="M1 1h14"/></svg><svg fill="none" viewBox="0 0 14 20" id="icon-mob-phone" xmlns="http://www.w3.org/2000/svg"><path d="M6 2h2M7 15v.01M3 1h8a2 2 0 012 2v14a2 2 0 01-2 2H3a2 2 0 01-2-2V3a2 2 0 012-2z" stroke="#001A20" stroke-width="2" stroke-linecap="round" stroke-linejoin="round"/></svg><svg fill="none" viewBox="0 0 7 12" id="icon-next" xmlns="http://www.w3.org/2000/svg"><path d="M1 1l5 5-5 5" stroke="#001A20" stroke-width="2" stroke-linecap="round" stroke-linejoin="round"/></svg><svg fill="none" viewBox="0 0 18 17" id="icon-pen" xmlns="http://www.w3.org/2000/svg"><path d="M10.796 2.79l3.915 3.913M1.5 16h3.914L15.69 5.725a2.768 2.768 0 10-3.914-3.914L1.5 12.086V16z" stroke="#001A20" stroke-width="2" stroke-linecap="round" stroke-linejoin="round"/></svg><svg fill="none" viewBox="0 0 17 17" id="icon-pen-blue" xmlns="http://www.w3.org/2000/svg"><path d="M10.296 2.79l3.915 3.913M1 16h3.914L15.19 5.725a2.768 2.768 0 10-3.914-3.914L1 12.086V16z" stroke="#0299D6" stroke-width="2" stroke-linecap="round" stroke-linejoin="round"/></svg><svg fill="none" viewBox="0 0 19 19" id="icon-phone" xmlns="http://www.w3.org/2000/svg"><path d="M3 1h4l2 5-2.5 1.5a11 11 0 005 5L13 10l5 2v4a2 2 0 01-2 2A16 16 0 011 3a2 2 0 012-2z" stroke="#001A20" stroke-width="2" stroke-linecap="round" stroke-linejoin="round"/></svg><svg fill="none" viewBox="0 0 18 17" id="icon-plus" xmlns="http://www.w3.org/2000/svg"><path d="M16.071 8.071H1.93M9 1v14.142" stroke="#001A20" stroke-width="2" stroke-linecap="round" stroke-linejoin="round"/></svg><svg fill="none" viewBox="0 0 20 20" id="icon-search" xmlns="http://www.w3.org/2000/svg"><path d="M19 19l-6-6m2-5A7 7 0 111 8a7 7 0 0114 0z" stroke="#001A20" stroke-width="2" stroke-linecap="round" stroke-linejoin="round"/></svg><svg fill="none" viewBox="0 0 20 20" id="lang-icon-black" xmlns="http://www.w3.org/2000/svg"><path d="M1.6 7h16.8M1.6 13h16.8M9.5 1a17 17 0 000 18m1-18a17 17 0 010 18m8.5-9a9 9 0 11-18 0 9 9 0 0118 0z" stroke="#000" stroke-width="1.5" stroke-linecap="round" stroke-linejoin="round"/></svg><svg fill="none" viewBox="0 0 20 20" id="lang-icon-white" xmlns="http://www.w3.org/2000/svg"><path d="M1.6 7h16.8M1.6 13h16.8M9.5 1a17 17 0 000 18m1-18a17 17 0 010 18m8.5-9a9 9 0 11-18 0 9 9 0 0118 0z" stroke="#FCFDFE" stroke-width="2" stroke-linecap="round" stroke-linejoin="round"/></svg><svg fill="none" viewBox="0 0 28 28" id="logo-icon" xmlns="http://www.w3.org/2000/svg"><path d="M4.117 7.023a.336.336 0 01-.076-.107l.024-.016.052.123zM5.766 15.85l-.028.012v-.005l.028-.007zM15.565 7.401l.008.008a.267.267 0 01-.122.056l.114-.064zM15.814 7.275a.37.37 0 01-.103.012l.1-.02.003.008z" fill="#0299D6"/><path d="M12.514 15.695l-.043.214-.068.442-.035.546v.58l-.04.522-.079.486v.004l-.112.448-.107.3-.059.056-.004.091-.119.237-.193.329-.23.284-.264.256-.16.118h-.032l-.09.09-.186.104h-.075l-.064.067-.177.075-.325.09-.253.044c-2.363.246-4.7.695-6.986 1.345a14 14 0 01-.02-16.81l.14.068.26.168.003.004.009.007.008.004.217.185.237.257.19.264.168.309.004.003.13.329a.525.525 0 01-.015-.098l.112.47a.404.404 0 01-.008-.079l.02.118c-.004-.004-.004-.012-.008-.016l.067.431.027.419-.011.459c-.004.023-.004.043-.008.056l-.052.497-.098.522-.009.067v-.02l-.058.504-.02.482.007.478.032.56.063.62.087.625.137.714.146.648.19.747.434 1.39.277.752.577 1.382.324.25.739.106h.004l.056.004.916.115 1.74.162.374-.169.858-1.22.415-.645.407-.667.36-.652.273-.528zM22.642 21.531l.079-.051-.17.154.09-.103z" fill="#0299D6"/><path d="M24.606 23.136a13.993 13.993 0 01-21.22-.008c2.12-.58 4.284-.987 6.47-1.213l.28-.036.064-.012.304-.082.376-.143h.102l.078-.082.206-.112.071-.004.1-.107.26-.197a.677.677 0 00.09-.083l.186-.186.292-.348a.564.564 0 00.088-.111l.197-.308.186-.384.071-.075v-.09l.123-.34.134-.518.09-.546a.64.64 0 00.012-.111l.04-.514v-.602l.032-.466.051-.36.224-.991.135-.459.051-.056v-.106l.162-.482.06-.06v-.098l.173-.451.578-1.28.304-.596.08-.079v-.08l.268-.477.083-.087.004-.068.336-.56.415-.652.24-.36 1.494.084 1.45.135.498 1.071.293.73.241.64.004.103.051.051.174.522v.112l.048.052.158.533.008.127.043.04.268 1.12.004.137.028.032.08.427.003.154.024.024.112.956.023.462v.412l-.031.383-.09.613-.046.628.004.514a.17.17 0 00.004.056l.044.47.09.474c.005.016.005.028.009.04l.122.395.21.494.011.023c.005.01.01.02.016.028l.012.024.02.023.146.257.24.324.297.316.332.28.415.257.356.158a.913.913 0 00.114.04l.178.059.067.027h.042c.215.058.425.113.638.173z" fill="#0299D6"/><path d="M27.999 14a13.944 13.944 0 01-2.821 8.428c-.336-.099-.676-.193-1.02-.28l-.514-.19-.28-.161-.504-.448-.197-.257-.168-.284-.143-.305-.003-.106-.056-.052-.072-.233v-.114l-.035-.04-.056-.272-.048-.443c0-.01 0-.019-.004-.028l-.004-.494.031-.462v-.02l.004-.015V18.2l.08-.514.05-.569v-.474l-.023-.478-.056-.577-.193-1.213-.15-.683-.174-.672-.196-.648v-.112l-.052-.05-.197-.602-.565-1.442-.34-.769-.392-.81-1.968-.182-1.956-.112-.952 1.446-.374.621-.083.092v.058l-.656 1.241-.012.02.028-.135.004-.047h.004l.043-.426.02-.579c.004-.023.004-.043.008-.056l.051-.498.091-.458.119-.407c-.004.008-.008.011-.008.015l.012-.056h.004l.015-.095c.001.03-.003.06-.011.088l.146-.364.193-.364.198-.288.233-.273.253-.233a.358.358 0 01-.06.04l.091-.067a.18.18 0 01-.027.027l.24-.162.024-.024.008-.004.005-.004.011-.007.245-.127.008-.004.296-.112.336-.079.234-.024a40.572 40.572 0 008.468-1.472A13.957 13.957 0 0127.998 14z" fill="#0299D6"/><path d="M24.78 4.865a39.457 39.457 0 01-7.946 1.347l-.288.028v.012l-.067.011-.004-.011-.317.076a.272.272 0 00-.075.02l-.344.13-.379.186-.028.02a.447.447 0 00-.112.075l-.162.112a.392.392 0 00-.107.075l-.264.233a.464.464 0 00-.107.107l-.213.249a.466.466 0 00-.083.112l-.194.28-.032.07-.008-.003-.181.34-.012.05-.012-.003a.193.193 0 00-.024.07l-.138.333a.592.592 0 00-.04.119l-.118.402.008.004-.016.075h-.011l-.096.486-.008.06-.003-.004-.056.533-.026.63-.04.398h-.003l-.08.434-.098.436-.004.023h-.004l-.15.51-.186.553h.004l-.47 1.15-.289.612-.324.625-.348.628-.379.628-.415.644-.448.644.016.012-.004.008-.016-.012-.245.336-.553-.048-1.834-.205h-.043L6.9 18.39l-.458-1.106-.27-.74h-.005l-.224-.696-.2-.672-.178-.68-.146-.664-.12-.64-.023.004v-.008h.02l-.081-.532-.064-.62-.031-.542-.008-.47.02-.43.05-.427.003-.016.1-.525.007-.06.004.004.06-.541.015-.56c0-.038 0-.075-.004-.112l-.024-.344a.664.664 0 00-.008-.13l-.064-.407a.424.424 0 00-.024-.106l-.094-.336h-.004l-.008-.052-.005.004-.146-.392-.016.004-.03-.102-.177-.327-.008-.016-.024-.036-.233-.332a.627.627 0 00-.063-.067l-.186-.206a.466.466 0 00-.107-.106l-.214-.182a.705.705 0 00-.112-.083l-.3-.194-.02-.003a13.994 13.994 0 0121.28-.08z" fill="#0299D6"/></svg><svg fill="none" viewBox="0 0 13 12" id="pagination-end-icon" xmlns="http://www.w3.org/2000/svg"><path d="M1 1l5 5-5 5M7 1l5 5-5 5" stroke="#001A20" stroke-width="1.5" stroke-linecap="round" stroke-linejoin="round"/></svg><svg fill="none" viewBox="0 0 7 12" id="pagination-next-icon" xmlns="http://www.w3.org/2000/svg"><path d="M1 1l5 5-5 5" stroke="#001A20" stroke-width="1.5" stroke-linecap="round" stroke-linejoin="round"/></svg><svg fill="none" viewBox="0 0 26 25" id="star-icon" xmlns="http://www.w3.org/2000/svg"><path d="M13.008 19.905L5.592 23.8l1.416-8.25L1 9.706l8.292-1.2L13 1l3.708 7.506L25 9.706l-6.008 5.843 1.416 8.251-7.4-3.895z" stroke="#001A20" stroke-width="2" stroke-linecap="round" stroke-linejoin="round"/></svg><svg fill="none" viewBox="0 0 22 21" id="star-icon-blue" xmlns="http://www.w3.org/2000/svg"><path d="M11.007 16.754L4.827 20l1.18-6.876L1 8.256l6.91-1L11 1l3.09 6.255 6.91 1-5.007 4.87L17.173 20l-6.166-3.246z" stroke="#0A719B" stroke-width="2" stroke-linecap="round" stroke-linejoin="round"/></svg><svg fill="none" viewBox="0 0 26 25" id="star-icon-hover" xmlns="http://www.w3.org/2000/svg"><path d="M13.008 19.905L5.592 23.8l1.416-8.25L1 9.706l8.292-1.2L13 1l3.708 7.506L25 9.706l-6.008 5.843 1.416 8.251-7.4-3.895z" fill="#F1F7FF" stroke="#0299D6" stroke-width="2" stroke-linecap="round" stroke-linejoin="round"/></svg><svg fill="none" viewBox="0 0 26 25" id="star-icon-pressed" xmlns="http://www.w3.org/2000/svg"><path d="M13.008 19.905L5.592 23.8l1.416-8.25L1 9.706l8.292-1.2L13 1l3.708 7.506L25 9.706l-6.008 5.843 1.416 8.251-7.4-3.895z" fill="#0299D6" stroke="#0299D6" stroke-width="2" stroke-linecap="round" stroke-linejoin="round"/></svg><svg fill="none" viewBox="0 0 26 25" id="star-icon-white" xmlns="http://www.w3.org/2000/svg"><path d="M13.008 19.905L5.592 23.8l1.416-8.25L1 9.707l8.292-1.2L13 1l3.708 7.506L25 9.706l-6.008 5.844 1.416 8.25-7.4-3.895z" stroke="#FCFDFE" stroke-width="2" stroke-linecap="round" stroke-linejoin="round"/></svg><svg fill="none" viewBox="0 0 32 32" id="tawk-icon" xmlns="http://www.w3.org/2000/svg"><g clip-path="url(#bqclip0_714_15113)"><path d="M17 12a1 1 0 10-2 0v.02a1 1 0 102 0V12zm-8 0a1 1 0 10-2 0v.02a1 1 0 102 0V12zm16 0a1 1 0 10-2 0v.02a1 1 0 102 0V12zM1 29.586V6a5 5 0 015-5h20a5 5 0 015 5v12a5 5 0 01-5 5H8a1 1 0 00-.707.293L1 29.586z" stroke="#FCFDFE" stroke-width="2" stroke-linecap="round" stroke-linejoin="round"/></g><defs><clipPath id="bqclip0_714_15113"><path fill="#fff" d="M0 0h32v32H0z"/></clipPath></defs></svg><svg fill="none" viewBox="0 0 18 16" id="tg-icon-white" xmlns="http://www.w3.org/2000/svg"><path d="M16.666 1.333L.666 8l5.895.889m10.105-7.555l-2.105 13.333-8-5.778m10.105-7.555L6.561 8.889l10.105-7.555zM6.561 8.889v4.889l2.736-2.913" fill="#FCFDFE"/><path d="M16.666 1.333L.666 8l5.895.889m10.105-7.555l-2.105 13.333-8-5.778m10.105-7.555L6.561 8.889m0 0v4.889l2.736-2.913" stroke="#FCFDFE" stroke-linecap="round" stroke-linejoin="round"/></svg><svg fill="none" viewBox="0 0 10 16" id="to-top-btn-icon" xmlns="http://www.w3.org/2000/svg"><path d="M5 15V1m0 0l4 4M5 1L1 5" stroke="#778083" stroke-width="2" stroke-linecap="round" stroke-linejoin="round"/></svg><svg fill="none" viewBox="0 0 20 13" id="vk-icon-white" xmlns="http://www.w3.org/2000/svg"><path d="M11.698 12.585V9.072c2.135.36 2.81 2.217 4.17 3.513h3.465c-.867-2.138-2.16-4.031-3.781-5.539 1.244-1.894 2.565-3.676 3.211-6.38h-3.15c-1.234 2.069-1.885 4.492-3.915 6.09V.665h-4.57l1.09 1.492v5.317c-1.77-.228-2.967-3.81-4.264-6.808H.666C1.863 4.719 4.38 13.61 11.699 12.585z" fill="#FCFDFE"/></svg></svg>